<?xml version="1.0" encoding="UTF-8"?>
<svg width="100pt" height="100pt" version="1.1" viewBox="0 0 100 100" xmlns="http://www.w3.org/2000/svg">
 <path d="m68.168 19.332h-36.336c-6.9023 0.007813-12.492 5.5977-12.5 12.5v36.34-0.003906c0.007813 6.9023 5.5977 12.492 12.5 12.5h36.34-0.003906c6.9023-0.007813 12.492-5.5977 12.5-12.5v-36.336c-0.007813-6.9023-5.5977-12.492-12.5-12.5zm-36.34 5h36.34c4.1406 0.003907 7.4961 3.3594 7.5 7.5v15.668h-11.445c-0.77734-4.5039-3.6445-8.375-7.7305-10.434-4.082-2.0547-8.9023-2.0547-12.984 0-4.0859 2.0586-6.9531 5.9297-7.7305 10.434h-11.445v-15.668c0.003907-4.1406 3.3594-7.4961 7.5-7.5zm27.648 25.668c0 3.832-2.3086 7.2891-5.8516 8.7539-3.5391 1.4648-7.6133 0.65625-10.324-2.0547-2.7109-2.7109-3.5195-6.7852-2.0547-10.324 1.4648-3.543 4.9219-5.8516 8.7539-5.8516 5.2305 0.007812 9.4688 4.2461 9.4766 9.4766zm8.6953 25.668h-36.34c-4.1406-0.003907-7.4961-3.3594-7.5-7.5v-15.668h11.445c0.77734 4.5039 3.6445 8.375 7.7305 10.434 4.082 2.0547 8.9023 2.0547 12.984 0 4.0859-2.0586 6.9531-5.9297 7.7305-10.434h11.445v15.668c-0.003907 4.1406-3.3594 7.4961-7.5 7.5zm-5.8945-44.727c0-0.66406 0.26172-1.3008 0.73047-1.7695 0.47266-0.46875 1.1055-0.73047 1.7695-0.73047h3.2969c1.3789 0 2.5 1.1172 2.5 2.5 0 1.3789-1.1211 2.5-2.5 2.5h-3.2969c-0.66406 0-1.2969-0.26562-1.7695-0.73438-0.46875-0.46875-0.73047-1.1055-0.73047-1.7656z"/>
</svg>
